<?xml version="1.0" encoding="UTF-8" standalone="no"?>
<svg
   xmlns:dc="http://purl.org/dc/elements/1.1/"
   xmlns:cc="http://creativecommons.org/ns#"
   xmlns:rdf="http://www.w3.org/1999/02/22-rdf-syntax-ns#"
   xmlns:svg="http://www.w3.org/2000/svg"
   xmlns="http://www.w3.org/2000/svg"
   xmlns:sodipodi="http://sodipodi.sourceforge.net/DTD/sodipodi-0.dtd"
   xmlns:inkscape="http://www.inkscape.org/namespaces/inkscape"
   sodipodi:docname="Brain Stroming.svg"
   inkscape:version="1.0 (4035a4fb49, 2020-05-01)"
   id="svg831"
   version="1.1"
   viewBox="0 0 22.577778 22.577778"
   height="64pt"
   width="64pt"
   inkscape:export-filename="D:\Project ++\Flat\png\File Archive.png"
   inkscape:export-xdpi="576"
   inkscape:export-ydpi="576">
  <defs
     id="defs825">
    <pattern
       y="0"
       x="0"
       height="6"
       width="6"
       patternUnits="userSpaceOnUse"
       id="EMFhbasepattern" />
    <pattern
       y="0"
       x="0"
       height="6"
       width="6"
       patternUnits="userSpaceOnUse"
       id="EMFhbasepattern-9" />
    <pattern
       y="0"
       x="0"
       height="6"
       width="6"
       patternUnits="userSpaceOnUse"
       id="EMFhbasepattern-0" />
    <pattern
       y="0"
       x="0"
       height="6"
       width="6"
       patternUnits="userSpaceOnUse"
       id="EMFhbasepattern-7" />
    <pattern
       y="0"
       x="0"
       height="6"
       width="6"
       patternUnits="userSpaceOnUse"
       id="EMFhbasepattern-2" />
    <pattern
       y="0"
       x="0"
       height="6"
       width="6"
       patternUnits="userSpaceOnUse"
       id="EMFhbasepattern-98" />
    <pattern
       y="0"
       x="0"
       height="6"
       width="6"
       patternUnits="userSpaceOnUse"
       id="EMFhbasepattern-6" />
    <pattern
       y="0"
       x="0"
       height="6"
       width="6"
       patternUnits="userSpaceOnUse"
       id="EMFhbasepattern-01" />
    <pattern
       y="0"
       x="0"
       height="6"
       width="6"
       patternUnits="userSpaceOnUse"
       id="EMFhbasepattern-07" />
    <pattern
       y="0"
       x="0"
       height="6"
       width="6"
       patternUnits="userSpaceOnUse"
       id="EMFhbasepattern-8" />
    <pattern
       y="0"
       x="0"
       height="6"
       width="6"
       patternUnits="userSpaceOnUse"
       id="EMFhbasepattern-4" />
    <pattern
       y="0"
       x="0"
       height="6"
       width="6"
       patternUnits="userSpaceOnUse"
       id="EMFhbasepattern-40" />
    <pattern
       y="0"
       x="0"
       height="6"
       width="6"
       patternUnits="userSpaceOnUse"
       id="EMFhbasepattern-08" />
    <pattern
       y="0"
       x="0"
       height="6"
       width="6"
       patternUnits="userSpaceOnUse"
       id="EMFhbasepattern-04" />
    <pattern
       y="0"
       x="0"
       height="6"
       width="6"
       patternUnits="userSpaceOnUse"
       id="EMFhbasepattern-014" />
    <pattern
       y="0"
       x="0"
       height="6"
       width="6"
       patternUnits="userSpaceOnUse"
       id="EMFhbasepattern-27" />
    <pattern
       y="0"
       x="0"
       height="6"
       width="6"
       patternUnits="userSpaceOnUse"
       id="EMFhbasepattern-09" />
    <pattern
       y="0"
       x="0"
       height="6"
       width="6"
       patternUnits="userSpaceOnUse"
       id="EMFhbasepattern-5" />
    <pattern
       y="0"
       x="0"
       height="6"
       width="6"
       patternUnits="userSpaceOnUse"
       id="EMFhbasepattern-018" />
  </defs>
  <sodipodi:namedview
     inkscape:document-rotation="0"
     inkscape:snap-global="true"
     inkscape:snap-nodes="false"
     inkscape:bbox-nodes="true"
     inkscape:snap-bbox="true"
     showguides="true"
     inkscape:snap-midpoints="true"
     inkscape:snap-smooth-nodes="true"
     inkscape:snap-intersection-paths="true"
     inkscape:object-paths="true"
     inkscape:showpageshadow="false"
     inkscape:pagecheckerboard="true"
     inkscape:window-maximized="1"
     inkscape:window-y="-8"
     inkscape:window-x="-8"
     inkscape:window-height="706"
     inkscape:window-width="1366"
     units="pt"
     showgrid="false"
     inkscape:current-layer="layer1"
     inkscape:document-units="pt"
     inkscape:cy="42.56527"
     inkscape:cx="42.682208"
     inkscape:zoom="4.2757863"
     inkscape:pageshadow="2"
     inkscape:pageopacity="0.0"
     borderopacity="1.0"
     bordercolor="#666666"
     pagecolor="#ffffff"
     id="base">
    <inkscape:grid
       id="grid1378"
       type="xygrid" />
    <sodipodi:guide
       inkscape:locked="false"
       id="guide1380"
       orientation="78.000048,0"
       position="0.97013831,21.607643" />
    <sodipodi:guide
       inkscape:locked="false"
       id="guide1382"
       orientation="0,78.000005"
       position="0.97013831,0.97013129" />
    <sodipodi:guide
       inkscape:locked="false"
       id="guide1384"
       orientation="-78.000048,0"
       position="21.607639,0.97013129" />
    <sodipodi:guide
       inkscape:locked="false"
       id="guide1386"
       orientation="0,-78.000005"
       position="21.607639,21.607643" />
  </sodipodi:namedview>
  <metadata
     id="metadata828">
    <rdf:RDF>
      <cc:Work
         rdf:about="">
        <dc:format>image/svg+xml</dc:format>
        <dc:type
           rdf:resource="http://purl.org/dc/dcmitype/StillImage" />
        <dc:title></dc:title>
      </cc:Work>
    </rdf:RDF>
  </metadata>
  <g
     transform="translate(0,-274.42223)"
     id="layer1"
     inkscape:groupmode="layer"
     inkscape:label="Icon">
    <g
       style="stroke-width:0.794878"
       id="g36283"
       transform="matrix(1.2580546,0,0,1.2580546,-76.110277,-192.40241)">
      <path
         style="color:#000000;clip-rule:evenodd;fill:#ee8eb4;fill-rule:evenodd;stroke-width:3.00427;stroke-linecap:round;stroke-linejoin:round;stroke-miterlimit:1.5"
         d="m 246.48828,355.11133 c -3.11476,0 -5.43378,1.30065 -6.87305,3.07226 -1.43925,1.77162 -2.04296,3.94974 -2.04296,5.84571 0,0.34426 0.0229,0.68486 0.0703,1.01758 -3.49398,0.93531 -6.07227,4.13254 -6.07227,7.9082 0,1.96082 0.69643,3.77164 1.85157,5.18359 -0.81558,1.27429 -1.29102,2.79314 -1.29102,4.41211 0,3.13541 1.77074,5.87015 4.37305,7.24219 -0.0749,0.47658 -0.11329,0.96478 -0.11329,1.46094 0,5.15259 4.19912,9.35351 9.35157,9.35351 5.15245,0 9.35351,-4.20107 9.35351,-9.35351 V 364.0293 c 0,-1.86467 -0.50839,-4.03334 -1.86718,-5.81641 -1.3588,-1.78307 -3.62547,-3.10156 -6.74024,-3.10156 z"
         id="path289783"
         transform="matrix(0.26458334,0,0,0.26458334,0,280.06666)" />
      <path
         style="color:#000000;clip-rule:evenodd;fill:#ee8eb4;fill-opacity:1;fill-rule:evenodd;stroke-width:3.00427;stroke-linecap:round;stroke-linejoin:round;stroke-miterlimit:1.5"
         d="m 274.77734,378.13672 c 1.15507,-1.41193 1.85157,-3.22284 1.85157,-5.1836 0,-3.77583 -2.57805,-6.97305 -6.07227,-7.9082 0.0472,-0.33209 0.0703,-0.67204 0.0703,-1.01562 0,-1.89597 -0.60566,-4.07409 -2.04492,-5.84571 -1.43926,-1.77161 -3.75633,-3.07226 -6.87109,-3.07226 h 10e-6 c -3.11477,0 -5.38144,1.31849 -6.74024,3.10156 -1.35879,1.78307 -1.86718,3.95174 -1.86718,5.81641 v 27.22461 c 0,5.15244 4.19911,9.35351 9.35156,9.35351 5.15245,0 9.35351,-4.20092 9.35351,-9.35351 0,-0.4976 -0.0399,-0.98696 -0.11523,-1.46485 z"
         transform="matrix(0.26458334,0,0,0.26458334,0,280.06666)"
         id="path289777"
         sodipodi:nodetypes="cscssssssssscc" />
      <path
         id="path151107"
         style="color:#000000;clip-rule:evenodd;fill:#dd527c;fill-rule:evenodd;stroke-width:3.00427;stroke-linecap:round;stroke-linejoin:round;stroke-miterlimit:1.5"
         d="m 246.48828,355.11133 c -3.11476,0 -5.43378,1.30065 -6.87305,3.07226 -1.43925,1.77162 -2.04296,3.94974 -2.04296,5.84571 0,0.48072 0.0492,0.95261 0.14062,1.4082 l -0.008,0.002 c 0,0 0.0345,0.19543 0.13281,0.52344 0.21933,0.73193 0.75605,2.12795 1.94727,3.50781 0.36094,0.41764 0.99225,0.46221 1.41015,0.10157 0.4177,-0.36095 0.46414,-0.99027 0.10352,-1.40821 -1.14929,-1.24958 -1.58507,-2.64088 -1.72653,-4.13476 0,-1.4524 0.50341,-3.23224 1.60156,-4.58399 1.09815,-1.35175 2.73503,-2.33203 5.31445,-2.33203 2.57942,0 4.12513,0.97029 5.14649,2.31055 1.02136,1.34029 1.46875,3.12174 1.46875,4.60547 -0.002,0.55228 0.44381,1.00174 0.99609,1.0039 0.55228,-0.002 0.99825,-0.45162 0.99609,-1.0039 0,-1.86467 -0.50839,-4.03334 -1.86718,-5.81641 -1.3588,-1.78307 -3.62547,-3.10156 -6.74024,-3.10156 z m -6.26758,30.12695 c -0.18862,-0.007 -0.37551,0.0386 -0.53906,0.13281 -1.24056,0.7121 -2.00493,1.59037 -2.44336,2.30274 -0.69268,1.10487 -0.77945,2.44736 -0.84766,3.58008 0,5.15259 4.19912,9.35351 9.35157,9.35351 4.28273,0 7.90786,-2.90299 9.00976,-6.8418 0.43477,-1.62257 0.25095,-3.31305 -0.6914,-4.73828 -0.95253,-1.24455 -2.88067,-3.10181 -5.95508,-3.19922 -0.55537,-0.0186 -1.0194,0.4191 -1.0332,0.97461 -0.0143,0.54939 0.41751,1.00732 0.96679,1.02539 1.93806,0.0615 3.24821,1.03994 4.0293,1.89454 1.10271,1.07313 1.02691,2.50546 0.60352,4.02343 -1.0203,2.83742 -3.73532,4.85938 -6.92969,4.85938 -4.07012,0 -7.35157,-3.28158 -7.35157,-7.35156 -0.0556,-1.06258 0.22371,-1.8199 0.55469,-2.53125 0.28713,-0.46659 0.7985,-1.07997 1.73438,-1.61719 0.47895,-0.27505 0.64423,-0.88631 0.36914,-1.36524 -0.17122,-0.29873 -0.48408,-0.48836 -0.82813,-0.50195 z"
         transform="matrix(0.26458334,0,0,0.26458334,0,280.06666)"
         sodipodi:nodetypes="cssccsccccssscccsccccccscccccccsccccc" />
      <path
         style="color:#000000;clip-rule:evenodd;fill:#dd527c;fill-rule:evenodd;stroke-width:0.794878;stroke-linecap:round;stroke-linejoin:round;stroke-miterlimit:1.5"
         d="m 62.035156,379.77539 a 0.2645835,0.2645835 0 0 0 -0.185547,0.0801 0.2645835,0.2645835 0 0 0 0.0059,0.375 c 0,0 0.511731,0.50154 1.3125,0.58398 a 0.2645835,0.2645835 0 0 0 0.291015,-0.23437 0.2645835,0.2645835 0 0 0 -0.236328,-0.29102 c -0.606982,-0.0625 -1,-0.4375 -1,-0.4375 a 0.2645835,0.2645835 0 0 0 -0.1875,-0.0762 z"
         id="path151109" />
      <path
         style="color:#000000;clip-rule:evenodd;fill:#dd527c;fill-rule:evenodd;stroke-width:0.794878;stroke-linecap:round;stroke-linejoin:round;stroke-miterlimit:1.5"
         d="m 63.648437,378.92773 a 0.2645835,0.2645835 0 0 0 -0.324218,0.1875 0.2645835,0.2645835 0 0 0 0.1875,0.32422 c 0,0 0.352214,0.0942 0.6875,0.40039 0.335286,0.30616 0.648578,0.79408 0.544922,1.6836 a 0.2645835,0.2645835 0 0 0 0.230468,0.29297 0.2645835,0.2645835 0 0 0 0.294922,-0.23243 c 0.121409,-1.04186 -0.278945,-1.73851 -0.71289,-2.13476 -0.433946,-0.39625 -0.908204,-0.52149 -0.908204,-0.52149 z"
         id="path151115" />
      <path
         style="color:#000000;clip-rule:evenodd;fill:#dd527c;fill-rule:evenodd;stroke-width:0.794878;stroke-linecap:round;stroke-linejoin:round;stroke-miterlimit:1.5"
         d="m 64.724609,380.2207 c 0,0 0.299501,-0.029 0.613282,-0.20703 0.31378,-0.17801 0.66326,-0.53461 0.734375,-1.11523 0.01784,-0.14509 -0.08536,-0.27716 -0.230469,-0.29492 -0.145093,-0.0179 -0.277162,0.0854 -0.294922,0.23046 -0.05025,0.41029 -0.258689,0.59847 -0.470703,0.71875 -0.212014,0.12029 -0.40625,0.14258 -0.40625,0.14258 z"
         id="path151117"
         sodipodi:nodetypes="cscccscc" />
      <path
         style="color:#000000;clip-rule:evenodd;fill:#dd527c;fill-rule:evenodd;stroke-width:0.794878;stroke-linecap:round;stroke-linejoin:round;stroke-miterlimit:1.5"
         d="m 65.359375,376.92578 a 0.2645835,0.2645835 0 0 0 -0.294922,0.23047 c -0.05025,0.41031 -0.256802,0.59848 -0.46875,0.71875 -0.211948,0.12027 -0.408203,0.14062 -0.408203,0.14062 a 0.2645835,0.2645835 0 0 0 -0.236328,0.29102 0.2645835,0.2645835 0 0 0 0.291015,0.23633 c 0,0 0.299563,-0.029 0.613282,-0.20703 0.313719,-0.17803 0.663263,-0.53659 0.734375,-1.11719 a 0.2645835,0.2645835 0 0 0 -0.230469,-0.29297 z"
         id="path151119" />
      <path
         style="color:#000000;clip-rule:evenodd;fill:#dd527c;fill-rule:evenodd;stroke-width:0.794878;stroke-linecap:round;stroke-linejoin:round;stroke-miterlimit:1.5"
         d="m 66.464844,377.41602 a 0.2645835,0.2645835 0 0 0 -0.316407,0.20117 0.2645835,0.2645835 0 0 0 0.201172,0.3164 c 0.526537,0.11696 0.621094,0.49024 0.621094,0.49024 a 0.2645835,0.2645835 0 0 0 0.330078,0.17383 0.2645835,0.2645835 0 0 0 0.173828,-0.33204 c 0,0 -0.236091,-0.67775 -1.009765,-0.8496 z"
         id="path151121" />
      <path
         style="color:#000000;clip-rule:evenodd;fill:#dd527c;fill-rule:evenodd;stroke-width:0.794878;stroke-linecap:round;stroke-linejoin:round;stroke-miterlimit:1.5"
         d="m 64.164062,383.31836 a 0.2645835,0.2645835 0 0 0 -0.0625,0.36914 c 0.331859,0.47021 0.769919,0.62578 1.103516,0.63281 0.333597,0.007 0.585938,-0.11719 0.585938,-0.11719 a 0.2645835,0.2645835 0 0 0 0.121093,-0.35546 0.2645835,0.2645835 0 0 0 -0.355468,-0.11914 c 0,0 -0.138813,0.0667 -0.339844,0.0625 -0.201031,-0.004 -0.439345,-0.0621 -0.683594,-0.40821 a 0.2645835,0.2645835 0 0 0 -0.369141,-0.0645 z"
         id="path151125" />
      <path
         style="color:#000000;clip-rule:evenodd;fill:#dd527c;fill-opacity:1;fill-rule:evenodd;stroke-width:0.794878;stroke-linecap:round;stroke-linejoin:round;stroke-miterlimit:1.5"
         d="m 69.576172,383.27344 a 0.2645835,0.2645835 0 0 0 -0.171875,0.10937 c -0.244115,0.34604 -0.482524,0.40397 -0.683594,0.40821 -0.20107,0.004 -0.339844,-0.0625 -0.339844,-0.0625 a 0.2645835,0.2645835 0 0 0 -0.353515,0.11914 0.2645835,0.2645835 0 0 0 0.11914,0.35546 c 0,0 0.252316,0.12422 0.585938,0.11719 0.333621,-0.007 0.773732,-0.16257 1.105469,-0.63281 a 0.2645835,0.2645835 0 0 0 -0.06445,-0.36914 0.2645835,0.2645835 0 0 0 -0.197265,-0.0449 z"
         id="path151127" />
      <path
         id="path24112"
         style="clip-rule:evenodd;fill:#dd527c;fill-opacity:1;fill-rule:evenodd;stroke-width:3.00427;stroke-linecap:round;stroke-linejoin:round;stroke-miterlimit:1.5"
         d="m 274.77734,378.13672 c 1.15507,-1.41193 1.85157,-3.22283 1.85157,-5.1836 0,-3.77583 -2.57805,-6.97305 -6.07227,-7.9082 0.0472,-0.33209 0.0703,-0.67204 0.0703,-1.01562 0,-1.75478 -0.52775,-3.74727 -1.74609,-5.43946 h -3.90038 c -2.5718,0 -5.03898,1.02336 -6.85742,2.8418 -1.81876,1.81871 -2.8418,4.28602 -2.8418,6.85742 v 10.55664 c 0,2.57201 1.02338,5.03898 2.8418,6.85742 1.29783,1.29786 2.8754,1.86555 4.39843,2.22071 l 4.14258,6.17969 c 0.56231,0.83799 1.5592,1.36523 2.56836,1.36523 0.66732,0 1.32497,-0.23224 1.85742,-0.63086 0.46123,-1.10515 0.71875,-2.31478 0.71875,-3.58398 0,-0.4976 -0.0399,-0.98696 -0.11523,-1.46485 z"
         transform="matrix(0.26458334,0,0,0.26458334,0,280.06666)"
         sodipodi:nodetypes="cscscsssssccscscc" />
      <path
         style="color:#000000;clip-rule:evenodd;fill:#f5f6e8;fill-opacity:1;fill-rule:evenodd;stroke:none;stroke-width:0.794878;stroke-linecap:round;stroke-linejoin:round;stroke-miterlimit:1.5;stroke-opacity:1"
         d="m 70.109375,375.49609 c -0.533828,0 -1.046319,0.21234 -1.423828,0.58985 -0.377559,0.37755 -0.589844,0.8901 -0.589844,1.42383 v 2.79296 c 0,0.53395 0.212288,1.04627 0.589844,1.42383 0.299682,0.29969 0.706826,0.43753 1.121094,0.50586 l 1.207031,1.79883 a 0.26460996,0.26460996 0 0 0 0.439453,0 l 1.146484,-1.71484 h 3.060547 c 0.534045,0 1.046327,-0.21264 1.423828,-0.58985 0.377205,-0.3775 0.589844,-0.88979 0.589844,-1.42383 v -2.79296 c 0,-0.53383 -0.212636,-1.04634 -0.589844,-1.42383 -0.377509,-0.37751 -0.889783,-0.58985 -1.423828,-0.58985 z"
         id="path151129" />
      <path
         id="path10446"
         style="color:#000000;clip-rule:evenodd;fill:#d0d9c3;fill-opacity:1;fill-rule:evenodd;stroke:none;stroke-width:0.794878;stroke-linecap:round;stroke-linejoin:round;stroke-miterlimit:1.5;stroke-opacity:1"
         d="m 70.109432,375.49609 c -0.533828,0 -1.046178,0.21263 -1.423686,0.59014 -0.183062,0.18306 -0.32685,0.39793 -0.426847,0.63149 0.248137,-0.10625 0.517203,-0.1633 0.7922,-0.1633 h 5.550564 c 0.534046,0 1.046695,0.21264 1.424205,0.59015 0.377206,0.37749 0.589626,0.88985 0.589626,1.42368 v 2.79311 c 0,0.27488 -0.05667,0.54375 -0.162779,0.79169 0.233481,-0.10004 0.448479,-0.24347 0.631486,-0.42633 0.377203,-0.3775 0.589627,-0.88965 0.589627,-1.42369 v -2.79311 c 0,-0.53383 -0.212421,-1.04619 -0.589627,-1.42369 -0.37751,-0.37751 -0.890159,-0.59014 -1.424204,-0.59014 z"
         sodipodi:nodetypes="sscsscssccsscss" />
      <path
         style="color:#000000;clip-rule:evenodd;fill:#fed883;fill-opacity:1;fill-rule:evenodd;stroke-width:0.794878;stroke-linecap:round;stroke-linejoin:round;stroke-miterlimit:1.5"
         d="m 75.599609,376.72656 -0.671875,0.39453 a 0.2645835,0.2645835 0 0 0 -0.09375,0.36328 0.2645835,0.2645835 0 0 0 0.361328,0.0937 l 0.671875,-0.39648 a 0.2645835,0.2645835 0 0 0 0.09375,-0.36133 0.2645835,0.2645835 0 0 0 -0.361328,-0.0937 z"
         id="path151131" />
      <path
         style="color:#000000;clip-rule:evenodd;fill:#fed883;fill-opacity:1;fill-rule:evenodd;stroke-width:0.794878;stroke-linecap:round;stroke-linejoin:round;stroke-miterlimit:1.5"
         d="m 75.195312,379.13281 a 0.2645835,0.2645835 0 0 0 -0.361328,0.0937 0.2645835,0.2645835 0 0 0 0.09375,0.36328 l 0.671875,0.39453 a 0.2645835,0.2645835 0 0 0 0.361328,-0.0937 0.2645835,0.2645835 0 0 0 -0.09375,-0.36328 z"
         id="path151133" />
      <path
         style="color:#000000;clip-rule:evenodd;fill:#fed883;fill-opacity:1;fill-rule:evenodd;stroke-width:0.794878;stroke-linecap:round;stroke-linejoin:round;stroke-miterlimit:1.5"
         d="m 75.0625,378.08984 a 0.2645835,0.2645835 0 0 0 -0.265625,0.26563 0.2645835,0.2645835 0 0 0 0.265625,0.26367 h 0.662109 a 0.2645835,0.2645835 0 0 0 0.263672,-0.26367 0.2645835,0.2645835 0 0 0 -0.263672,-0.26563 z"
         id="path151135" />
      <path
         style="color:#000000;clip-rule:evenodd;fill:#fed883;fill-opacity:1;fill-rule:evenodd;stroke-width:0.794878;stroke-linecap:round;stroke-linejoin:round;stroke-miterlimit:1.5"
         d="m 70.171875,376.72656 a 0.2645835,0.2645835 0 0 0 -0.363281,0.0937 0.2645835,0.2645835 0 0 0 0.09375,0.36133 l 0.671875,0.39648 a 0.2645835,0.2645835 0 0 0 0.363281,-0.0937 0.2645835,0.2645835 0 0 0 -0.0957,-0.36328 z"
         id="path151139" />
      <path
         style="color:#000000;clip-rule:evenodd;fill:#fed883;fill-opacity:1;fill-rule:evenodd;stroke-width:0.794878;stroke-linecap:round;stroke-linejoin:round;stroke-miterlimit:1.5"
         d="m 70.574219,379.13281 -0.671875,0.39453 a 0.2645835,0.2645835 0 0 0 -0.09375,0.36328 0.2645835,0.2645835 0 0 0 0.363281,0.0937 l 0.669922,-0.39453 a 0.2645835,0.2645835 0 0 0 0.0957,-0.36328 0.2645835,0.2645835 0 0 0 -0.363281,-0.0937 z"
         id="path151141" />
      <path
         style="color:#000000;clip-rule:evenodd;fill:#fed883;fill-opacity:1;fill-rule:evenodd;stroke-width:0.794878;stroke-linecap:round;stroke-linejoin:round;stroke-miterlimit:1.5"
         d="m 70.046875,378.08984 a 0.2645835,0.2645835 0 0 0 -0.265625,0.26563 0.2645835,0.2645835 0 0 0 0.265625,0.26367 h 0.662109 a 0.2645835,0.2645835 0 0 0 0.263672,-0.26367 0.2645835,0.2645835 0 0 0 -0.263672,-0.26563 z"
         id="path151143" />
      <path
         style="color:#000000;clip-rule:evenodd;fill:#fed883;fill-opacity:1;fill-rule:evenodd;stroke-width:0.794878;stroke-linecap:round;stroke-linejoin:round;stroke-miterlimit:1.5"
         d="m 72.884766,376.9707 c -0.677083,0 -1.116484,0.19241 -1.332032,0.54102 -0.215547,0.34861 -0.199218,0.74845 -0.199218,1.13867 0,0.9084 0.672523,1.67773 1.53125,1.67773 0.858727,0 1.53125,-0.76928 1.53125,-1.67773 0,-0.39022 0.01833,-0.79006 -0.197266,-1.13867 -0.215593,-0.34861 -0.656782,-0.54102 -1.333984,-0.54102 z"
         id="path151147" />
      <path
         style="color:#000000;clip-rule:evenodd;fill:#ec7523;fill-opacity:1;fill-rule:evenodd;stroke-width:0.794878;stroke-linecap:round;stroke-linejoin:round;stroke-miterlimit:1.5"
         d="m 73.09375,378.76758 c -0.330885,0.17337 -0.443102,0.51063 -0.466797,0.75781 -0.0237,0.24718 0.02539,0.45313 0.02539,0.45313 a 0.2645835,0.2645835 0 0 0 0.316406,0.19921 0.2645835,0.2645835 0 0 0 0.199219,-0.3164 c 0,0 -0.02826,-0.13303 -0.01367,-0.28516 0.01458,-0.15213 0.05513,-0.27253 0.183594,-0.33984 a 0.2645835,0.2645835 0 0 0 0.111328,-0.35742 0.2645835,0.2645835 0 0 0 -0.35547,-0.11133 z"
         id="path151153" />
      <path
         style="color:#000000;clip-rule:evenodd;fill:#ec7523;fill-opacity:1;fill-rule:evenodd;stroke-width:0.794878;stroke-linecap:round;stroke-linejoin:round;stroke-miterlimit:1.5"
         d="m 72.677734,378.76758 a 0.2645835,0.2645835 0 0 0 -0.357422,0.11133 0.2645835,0.2645835 0 0 0 0.111329,0.35742 c 0.128465,0.0673 0.170963,0.18771 0.185546,0.33984 0.01458,0.15213 -0.01367,0.28516 -0.01367,0.28516 a 0.2645835,0.2645835 0 0 0 0.199218,0.3164 0.2645835,0.2645835 0 0 0 0.316407,-0.19921 c 0,0 0.04713,-0.20595 0.02344,-0.45313 -0.0237,-0.24718 -0.133958,-0.58444 -0.464844,-0.75781 z"
         id="path151155" />
      <path
         id="path26580"
         style="color:#000000;clip-rule:evenodd;fill:#ec7523;fill-opacity:1;fill-rule:evenodd;stroke-width:0.794878;stroke-linecap:round;stroke-linejoin:round;stroke-miterlimit:1.5"
         d="m 72.884958,376.97082 c -0.677082,0 -1.116669,0.19245 -1.332217,0.54106 -0.02939,0.0475 -0.05405,0.0959 -0.07545,0.14521 0.227405,-0.10275 0.519571,-0.1571 0.878499,-0.1571 0.677204,0 1.118177,0.19244 1.33377,0.54106 0.215596,0.34861 0.197403,0.74821 0.197403,1.13843 0,0.34573 -0.09761,0.67137 -0.265615,0.94206 0.477168,-0.28842 0.794782,-0.8471 0.794782,-1.47123 0,-0.39022 0.0182,-0.78982 -0.197403,-1.13843 -0.215593,-0.34861 -0.656566,-0.54106 -1.333769,-0.54106 z" />
      <path
         style="color:#000000;clip-rule:evenodd;fill:#3a4b58;fill-opacity:1;fill-rule:evenodd;stroke-width:0.794878;stroke-linecap:round;stroke-linejoin:round;stroke-miterlimit:1.5"
         d="m 71.791016,379.75977 c -0.007,0.10254 -0.0078,0.20343 -0.0078,0.30273 0,0.64371 0.480222,1.19922 1.101563,1.19922 0.621509,0 1.101562,-0.5556 1.101562,-1.19922 0,-0.0994 -0.0011,-0.19863 -0.0078,-0.30078 -0.728106,0.0571 -1.459599,0.0492 -2.187525,-0.002 z"
         id="path151149"
         sodipodi:nodetypes="cssscc" />
      <path
         style="color:#000000;clip-rule:evenodd;fill:#dd527c;fill-rule:evenodd;stroke-width:0.794878;stroke-linecap:round;stroke-linejoin:round;stroke-miterlimit:1.5"
         d="m 63.160156,376.5957 c -1.06532,0.13564 -1.890625,1.0496 -1.890625,2.14844 0,0.5902 0.2388,1.12899 0.623047,1.51953 0.102865,0.10443 0.271027,0.10533 0.375,0.002 0.103126,-0.10264 0.104019,-0.2693 0.002,-0.37304 -0.291072,-0.29584 -0.470703,-0.7 -0.470703,-1.14844 0,-0.83482 0.62288,-1.52057 1.427734,-1.62305 z"
         id="path303233"
         sodipodi:nodetypes="cscccscc" />
      <path
         style="color:#000000;clip-rule:evenodd;fill:#dd527c;fill-rule:evenodd;stroke-width:0.794878;stroke-linecap:round;stroke-linejoin:round;stroke-miterlimit:1.5"
         d="m 62.943359,382.7891 c -0.584345,-0.2491 -0.996093,-0.82807 -0.996093,-1.50586 0,-0.38748 0.134719,-0.741 0.359375,-1.02148 l -0.414063,-0.33203 c -0.296658,0.37037 -0.474609,0.84328 -0.474609,1.35351 0,0.89223 0.541605,1.6619 1.316406,1.99219 z"
         id="path332711"
         sodipodi:nodetypes="csccscc" />
      <path
         id="path28927"
         style="color:#000000;clip-rule:evenodd;fill:#143441;fill-opacity:1;fill-rule:evenodd;stroke-width:0.794878;stroke-linecap:round;stroke-linejoin:round;stroke-miterlimit:1.5"
         d="m 71.790969,379.7598 c -0.007,0.10254 -0.0078,0.20353 -0.0078,0.30283 0,0.0875 0.0089,0.17326 0.02585,0.25631 0.546782,0.0211 1.094301,0.0149 1.64021,-0.0279 0.0067,0.10215 0.0078,0.20135 0.0078,0.30075 0,0.2044 -0.04837,0.39988 -0.134358,0.57155 0.395275,-0.18735 0.663525,-0.61944 0.663525,-1.10071 0,-0.0994 -0.0011,-0.19861 -0.0078,-0.30076 -0.728107,0.0571 -1.45954,0.0491 -2.187464,-0.002 z" />
    </g>
  </g>
</svg>
