<svg version="1.1" viewBox="0 0 100 100" xmlns="http://www.w3.org/2000/svg"><path d="M51.6,82c-17.7,0-32-14.3-32.1-31.9S33.8,18,51.4,18c3.8,0,7.6,0.7,11.2,2c0.6,0.2,1.2,0.7,1.4,1.4c0.3,0.6,0.2,1.4-0.1,2   c-1.9,3.7-2.8,7.9-2.8,12c0,11.4,7.1,21.5,17.8,25.5c0.6,0.2,1.1,0.7,1.4,1.4c0.3,0.6,0.2,1.3-0.1,2C74.9,75.1,63.7,82,51.6,82z    M51.6,22.8c-15,0-27.2,12.2-27.2,27.2c0,15,12.2,27.2,27.2,27.2c9.4,0,18.2-4.9,23.1-12.9C63.5,59,56.3,47.8,56.3,35.4   c0-4,0.8-7.9,2.2-11.6C56.3,23.1,53.9,22.8,51.6,22.8z"/></svg>