<svg version="1.1" viewBox="0 0 100 100" xmlns="http://www.w3.org/2000/svg" xmlns:xlink="http://www.w3.org/1999/xlink"><path d="M79.9,48.2H69.8C69.4,44,67.7,40,65,36.7l5.8-5.8c0.7-0.8,0.7-2-0.1-2.7c-0.7-0.7-1.9-0.7-2.6,0L62.3,34   c-3.3-2.6-7.3-4.2-11.5-4.5v-8.4c0-1.1-0.9-1.9-1.9-1.9S47,20.1,47,21.1v8.5c-4.1,0.5-7.9,2.2-11,4.8l-6.2-6.2   c-0.8-0.7-2-0.7-2.7,0.1c-0.7,0.7-0.7,1.9,0,2.6l6.3,6.3c-2.5,3.2-4.1,7-4.4,11h-9c-1.1,0-1.9,0.9-1.9,1.9S19,52,20,52h9   c0.4,4,2,7.8,4.5,10.9l-6.4,6.3c-0.8,0.7-0.9,1.9-0.1,2.7c0.7,0.8,1.9,0.9,2.7,0.1l0.1-0.1l6.3-6.3c3.1,2.6,6.9,4.3,11,4.7v8.7   c0,1.1,0.9,1.9,1.9,1.9s1.9-0.9,1.9-1.9l0,0v-8.7c4.1-0.3,8.1-1.8,11.3-4.4l5.9,5.9c0.8,0.8,2,0.8,2.8,0s0.8-2,0-2.8L65,63   c2.8-3.2,4.5-7.2,4.9-11.4H80c1.1,0,1.9-0.9,1.9-1.9C81.8,49.1,80.9,48.2,79.9,48.2z M66,50.6c-0.2,9.1-7.8,16.4-17,16.2   s-16.4-7.8-16.2-17c0.2-9.1,7.8-16.4,17-16.2c8.9,0.2,16,7.3,16.2,16.2c0,0.1,0,0.3,0,0.4C65.9,50.2,65.9,50.4,66,50.6z"/></svg>